<svg xmlns="http://www.w3.org/2000/svg" viewBox="0 0 128 128" role="img" aria-label="Core Diski crest favicon">
  <circle cx="64" cy="64" r="62" fill="#12233c"/>
  <circle cx="64" cy="64" r="56" fill="#efe9d3"/>
  <circle cx="64" cy="64" r="42" fill="none" stroke="#1f6f4a" stroke-width="6"/>
  <circle cx="64" cy="64" r="24" fill="#1f6f4a"/>
  <path d="M70 44c-6 2-11 8-13 14-4-2-9-2-14 1 3 3 5 5 6 7-6 4-10 12-10 20 5-4 8-6 11-10 1 10 6 16 14 21-2-8 4-14 9-19 7-6 10-20-3-34Z" fill="#efe9d3"/>
</svg>
