<svg xmlns="http://www.w3.org/2000/svg" viewBox="0 0 512 512" role="img" aria-labelledby="title desc">
  <title id="title">Core Diski crest logo</title>
  <desc id="desc">Circular embroidered style crest with Core Diski and Est 2022 text.</desc>
  <defs>
    <radialGradient id="cream" cx="50%" cy="45%" r="70%">
      <stop offset="0%" stop-color="#f4f0dd"/>
      <stop offset="100%" stop-color="#e8e1c8"/>
    </radialGradient>
  </defs>
  <circle cx="256" cy="256" r="248" fill="#12233c"/>
  <circle cx="256" cy="256" r="230" fill="url(#cream)"/>
  <circle cx="256" cy="256" r="174" fill="none" stroke="#1f6f4a" stroke-width="18"/>
  <circle cx="256" cy="256" r="150" fill="none" stroke="#1f6f4a" stroke-width="12" stroke-dasharray="7 9"/>
  <circle cx="256" cy="256" r="108" fill="none" stroke="#12233c" stroke-width="8"/>
  <circle cx="216" cy="232" r="48" fill="#1f6f4a"/>
  <path d="M286 173c-18 6-34 23-39 43-13-8-28-7-43 2 8 7 17 15 20 22-19 12-31 37-30 63 16-10 23-17 33-30 3 31 20 50 45 64-6-26 10-45 26-58 22-18 29-63-12-106Z" fill="#1f6f4a"/>
  <circle cx="302" cy="286" r="10" fill="#1f6f4a"/>
  <g fill="#12233c" font-family="Georgia, serif" font-weight="700" text-anchor="middle">
    <text x="256" y="82" font-size="54" letter-spacing="3">CORE DISKI</text>
    <text x="256" y="448" font-size="56" letter-spacing="4">EST 2022</text>
  </g>
</svg>
